# xmcd CD database file
#
# Track frame offsets:
#	182
#	13122
#	28045
#	48187
#	66255
#	81012
#	99232
#	115475
#	130612
#	148820
#	168955
#
# Disc length: 2456 seconds
#
# Revision: 1
# Processed by: cddbd v1.4PL0 Copyright (c) Steve Scherf et al.
# Submitted via: CDex 1.50
#
DISCID=8c09960b
DTITLE=Vince Gill - 35 All-Time Favorites - Disc 3
DYEAR=1997
DGENRE=Country
TTITLE0=Everybody's Sweetheart
TTITLE1=Let's Do Something
TTITLE2=White Line
TTITLE3=I Never Knew Lonely
TTITLE4=Savannah (Don't You Ever Think Of Me?)
TTITLE5=True Love
TTITLE6=Half A Chance
TTITLE7=Livin' The Way I Do
TTITLE8=The Radio
TTITLE9=Something's Missing
TTITLE10=What If I Say Goodbye
EXTD=YEAR: 1997
EXTT0=
EXTT1=
EXTT2=
EXTT3=
EXTT4=
EXTT5=
EXTT6=
EXTT7=
EXTT8=
EXTT9=
EXTT10=
PLAYORDER=
